<svg width="31" height="35" viewBox="0 0 31 35" fill="none" xmlns="http://www.w3.org/2000/svg">
<path d="M15.4125 17.5C20.2455 17.5 24.1625 13.583 24.1625 8.75C24.1625 3.91699 20.2455 0 15.4125 0C10.5795 0 6.66248 3.91699 6.66248 8.75C6.66248 13.583 10.5795 17.5 15.4125 17.5ZM21.9613 19.7285L18.6937 32.8125L16.5062 23.5156L18.6937 19.6875H12.1312L14.3187 23.5156L12.1312 32.8125L8.86365 19.7285C3.98962 19.9609 0.0999756 23.9463 0.0999756 28.875V31.7188C0.0999756 33.5303 1.5697 35 3.38123 35H27.4437C29.2552 35 30.725 33.5303 30.725 31.7188V28.875C30.725 23.9463 26.8353 19.9609 21.9613 19.7285Z" fill="#006766"/>
<path d="M15.4125 7V10.325L17.3375 11.375" stroke="white" stroke-width="2" stroke-linecap="round" stroke-linejoin="round"/>
</svg>
