<svg width="134" height="78" viewBox="0 0 134 78" fill="none" xmlns="http://www.w3.org/2000/svg">
<path d="M53.272 49L62.622 25.2H67.178L76.46 49H71.258L66.43 36.182C66.294 35.7967 66.124 35.3207 65.92 34.754C65.7387 34.1873 65.546 33.5867 65.342 32.952C65.138 32.3173 64.9453 31.7167 64.764 31.15C64.6053 30.5607 64.4693 30.0847 64.356 29.722L65.274 29.688C65.138 30.1867 64.9793 30.7193 64.798 31.286C64.6393 31.83 64.458 32.3967 64.254 32.986C64.0727 33.5753 63.88 34.142 63.676 34.686C63.4947 35.23 63.3133 35.7513 63.132 36.25L58.338 49H53.272ZM57.624 44.002L59.324 39.854H70.17L71.904 44.002H57.624ZM79.8342 49V25.2H84.3902L97.5822 43.016H96.6642C96.5056 41.86 96.3696 40.7153 96.2562 39.582C96.1429 38.426 96.0636 37.202 96.0182 35.91C95.9956 34.618 95.9842 33.1787 95.9842 31.592V25.2H100.948V49H96.3242L82.8942 31.082H84.1182C84.2769 32.578 84.4016 33.8133 84.4922 34.788C84.5829 35.7627 84.6509 36.5787 84.6962 37.236C84.7416 37.8707 84.7756 38.4373 84.7982 38.936C84.8209 39.4347 84.8322 39.956 84.8322 40.5V49H79.8342ZM107.127 49V25.2H111.785L120.421 39.276L117.395 39.242L126.167 25.2H130.655V49H125.657V40.942C125.657 38.8793 125.703 37.0207 125.793 35.366C125.907 33.7113 126.088 32.0793 126.337 30.47L126.915 32.068L119.945 42.846H117.667L110.867 32.136L111.411 30.47C111.683 31.9887 111.865 33.5527 111.955 35.162C112.069 36.7713 112.125 38.698 112.125 40.942V49H107.127Z" fill="#006766"/>
<path d="M17.4125 36.5C22.2455 36.5 26.1625 32.583 26.1625 27.75C26.1625 22.917 22.2455 19 17.4125 19C12.5795 19 8.66248 22.917 8.66248 27.75C8.66248 32.583 12.5795 36.5 17.4125 36.5ZM23.9613 38.7285L20.6937 51.8125L18.5062 42.5156L20.6937 38.6875H14.1312L16.3187 42.5156L14.1312 51.8125L10.8636 38.7285C5.98962 38.9609 2.09998 42.9463 2.09998 47.875V50.7188C2.09998 52.5303 3.5697 54 5.38123 54H29.4437C31.2552 54 32.725 52.5303 32.725 50.7188V47.875C32.725 42.9463 28.8353 38.9609 23.9613 38.7285Z" fill="#006766"/>
<path d="M17.4125 26V29.325L19.3375 30.375" stroke="white" stroke-width="2" stroke-linecap="round" stroke-linejoin="round"/>
</svg>
