<svg width="24" height="24" viewBox="0 0 24 24" fill="none" xmlns="http://www.w3.org/2000/svg">
<mask id="path-1-inside-1_1188_2954" fill="white">
<path d="M3 11.7308C3 10.0388 3 9.19275 3.35288 8.44909C3.70576 7.70544 4.36847 7.15485 5.6939 6.05369L6.97961 4.98552C9.3753 2.99517 10.5732 2 12 2C13.4268 2 14.6247 2.99517 17.0204 4.98552L18.3061 6.05369C19.6315 7.15485 20.2942 7.70544 20.6471 8.44909C21 9.19275 21 10.0388 21 11.7308V17.0152C21 19.3651 21 20.54 20.2468 21.27C19.4937 22 18.2815 22 15.8571 22H8.14286C5.71849 22 4.50631 22 3.75315 21.27C3 20.54 3 19.3651 3 17.0152V11.7308Z"/>
</mask>
<path d="M14.4643 22C14.4643 22.4142 14.8001 22.75 15.2143 22.75C15.6285 22.75 15.9643 22.4142 15.9643 22H14.4643ZM8.03571 22C8.03571 22.4142 8.3715 22.75 8.78571 22.75C9.19993 22.75 9.53571 22.4142 9.53571 22H8.03571ZM10.0714 15.2728H13.9286V13.7728H10.0714V15.2728ZM14.4643 15.769V22H15.9643V15.769H14.4643ZM8.03571 15.769V22H9.53571V15.769H8.03571ZM13.9286 15.2728C14.2467 15.2728 14.4643 15.5168 14.4643 15.769H15.9643C15.9643 14.6446 15.0306 13.7728 13.9286 13.7728V15.2728ZM10.0714 13.7728C8.96937 13.7728 8.03571 14.6446 8.03571 15.769H9.53571C9.53571 15.5168 9.75332 15.2728 10.0714 15.2728V13.7728ZM6.97961 4.98552L7.93816 6.13929H7.93816L6.97961 4.98552ZM17.0204 4.98552L16.0618 6.13928V6.13929L17.0204 4.98552ZM18.3061 6.05369L19.2647 4.89992V4.89992L18.3061 6.05369ZM5.6939 6.05369L4.73534 4.89992H4.73534L5.6939 6.05369ZM19.5 11.7308V17.0152H22.5V11.7308H19.5ZM15.8571 20.5H8.14286V23.5H15.8571V20.5ZM4.5 17.0152V11.7308H1.5V17.0152H4.5ZM6.65245 7.20746L7.93816 6.13929L6.02106 3.83175L4.73534 4.89992L6.65245 7.20746ZM16.0618 6.13929L17.3476 7.20746L19.2647 4.89992L17.9789 3.83175L16.0618 6.13929ZM7.93816 6.13929C9.16541 5.11969 9.98132 4.44534 10.6618 4.00969C11.3062 3.59717 11.6794 3.5 12 3.5V0.5C10.8937 0.5 9.95455 0.900416 9.04439 1.48307C8.17036 2.04259 7.18951 2.861 6.02106 3.83175L7.93816 6.13929ZM17.9789 3.83175C16.8105 2.861 15.8296 2.04259 14.9556 1.48307C14.0454 0.900416 13.1063 0.5 12 0.5V3.5C12.3206 3.5 12.6938 3.59717 13.3382 4.00969C14.0187 4.44534 14.8346 5.11969 16.0618 6.13928L17.9789 3.83175ZM8.14286 20.5C6.88954 20.5 6.09587 20.497 5.51513 20.4213C4.97287 20.3507 4.84694 20.2412 4.79713 20.1929L2.70917 22.3471C3.41252 23.0288 4.26926 23.2843 5.12747 23.3962C5.9472 23.503 6.97181 23.5 8.14286 23.5V20.5ZM1.5 17.0152C1.5 18.1464 1.49661 19.1504 1.60837 19.9561C1.72679 20.8099 1.99928 21.659 2.70917 22.3471L4.79713 20.1929C4.75387 20.151 4.64978 20.0476 4.57992 19.5439C4.50339 18.9922 4.5 18.2338 4.5 17.0152H1.5ZM19.5 17.0152C19.5 18.2338 19.4966 18.9922 19.4201 19.5439C19.3502 20.0476 19.2461 20.151 19.2029 20.1929L21.2908 22.3471C22.0007 21.659 22.2732 20.8099 22.3916 19.9561C22.5034 19.1504 22.5 18.1464 22.5 17.0152H19.5ZM15.8571 23.5C17.0282 23.5 18.0528 23.503 18.8725 23.3962C19.7307 23.2843 20.5875 23.0288 21.2908 22.3471L19.2029 20.1929C19.1531 20.2412 19.0271 20.3507 18.4849 20.4213C17.9041 20.497 17.1105 20.5 15.8571 20.5V23.5ZM22.5 11.7308C22.5 10.1791 22.5337 8.92602 22.0023 7.80604L19.292 9.09215C19.4663 9.45949 19.5 9.89841 19.5 11.7308H22.5ZM17.3476 7.20746C18.7817 8.39893 19.1145 8.71817 19.292 9.09215L22.0023 7.80604C21.474 6.69271 20.4814 5.91078 19.2647 4.89992L17.3476 7.20746ZM4.5 11.7308C4.5 9.8984 4.53374 9.45949 4.70805 9.09215L1.99771 7.80604C1.46626 8.92602 1.5 10.1791 1.5 11.7308H4.5ZM4.73534 4.89992C3.51862 5.91078 2.52601 6.69271 1.99771 7.80604L4.70805 9.09215C4.88551 8.71817 5.21832 8.39893 6.65245 7.20746L4.73534 4.89992Z" fill="#006766" mask="url(#path-1-inside-1_1188_2954)"/>
</svg>
