<svg width="60" height="60" viewBox="0 0 60 60" fill="none" xmlns="http://www.w3.org/2000/svg">
<g id="Leave Balance">
<g id="Vector">
<path d="M22.6683 54H22.1027C22.0195 53.9605 21.9344 53.9253 21.8475 53.8945L7.1171 49.602C6.24694 49.3477 6.01411 49.0477 6.01411 48.1699C6.01411 34.6113 6.00941 21.0527 6 7.49414C6 6.79102 6.21519 6.2918 6.86428 6H36.2134C36.9013 6.24375 37.1424 6.75352 37.14 7.45078C37.1294 10.2633 37.14 13.0758 37.1341 15.8883C37.1341 16.023 37.1177 16.1578 37.1071 16.3137L34.8588 16.6031V8.28281H15.2437C15.4977 8.36836 15.6235 8.41523 15.7517 8.45391L22.3296 10.3734C23.3068 10.6594 23.5173 10.9359 23.5173 11.9367C23.5173 15.8898 23.5173 19.8426 23.5173 23.7949V24.3809C23.6772 24.2063 23.7607 24.1195 23.8383 24.0293C24.8602 22.8035 25.8902 21.5859 26.8956 20.3473C27.2563 19.8902 27.7773 19.5862 28.3537 19.4965C30.8807 19.0453 33.4101 18.5742 35.93 18.1148C36.9625 17.9262 38.0078 17.6461 39.0391 18.0117C40.5854 18.5625 42.1258 19.1379 43.6368 19.7789C44.8257 20.284 45.3595 21.5426 44.9915 22.7801C44.8127 23.3766 44.5693 23.952 44.3483 24.5379C43.9743 25.5258 43.5969 26.5125 43.2112 27.5238C43.3887 27.5754 43.5216 27.6188 43.6568 27.6539C45.2478 28.0617 46.8388 28.4742 48.4321 28.8738C49.1377 29.052 49.6468 29.4352 49.8491 30.1559C49.8997 30.3328 49.9173 30.518 49.9502 30.6938C51.3248 30.8648 51.4248 30.9797 51.4248 32.3754V33.75C51.9316 33.75 52.3655 33.75 52.8041 33.75C53.6625 33.7559 53.9988 34.0887 54 34.9453C54 36.9297 54 38.9137 54 40.8973C54 41.8172 53.679 42.1488 52.7653 42.1512C50.2873 42.1559 47.8101 42.1559 45.3337 42.1512C45.2043 42.1512 45.075 42.1242 44.908 42.1066C45.0256 41.7797 45.1114 41.5137 45.2102 41.2523C45.6947 39.9785 45.5559 38.7809 44.8045 37.6395C44.119 36.5941 43.4569 35.5301 42.7855 34.4754C42.6797 34.309 42.5762 34.1402 42.448 33.9363C43.1782 33.5555 43.9414 33.8824 44.6728 33.682C44.6728 33.0106 44.6799 32.3566 44.6658 31.7016C44.6621 31.6455 44.645 31.5912 44.616 31.5431C44.5869 31.4949 44.5467 31.4545 44.4988 31.425C43.6615 31.1906 42.8172 30.9879 41.9612 30.7711C41.5685 31.7988 41.1781 32.7633 40.8347 33.7547C40.7705 33.9802 40.7979 34.2219 40.9111 34.4273C41.7342 35.7703 42.5821 37.1051 43.4546 38.4199C43.9555 39.1746 44.0366 39.927 43.7227 40.7719C43.103 42.4395 42.5233 44.1199 41.9247 45.7945C41.4367 47.1609 40.984 48.5391 40.4455 49.8879C39.8575 51.3703 37.9761 51.6457 37.0154 50.427C36.5168 49.793 36.4886 49.0934 36.7567 48.3469C37.6974 45.7195 38.6322 43.0863 39.5788 40.4578C39.6729 40.1965 39.707 39.9891 39.5341 39.7195C38.2407 37.7273 36.9754 35.7176 35.6807 33.7266C35.5408 33.5098 35.2668 33.375 34.994 33.1617C34.6542 34.3195 34.3496 35.3344 34.0533 36.3516C33.2114 39.2719 32.4447 42.2109 30.8396 44.8559C29.8377 46.5094 29.0134 48.2695 28.1092 49.9816C27.7035 50.7492 27.0932 51.184 26.196 51.1898C25.8738 51.1898 25.7656 51.0867 25.7691 50.7563C25.7856 49.241 25.7691 47.7246 25.7844 46.2094C25.7887 45.9484 25.8518 45.6916 25.969 45.4582C26.8239 43.8082 27.7011 42.1699 28.5642 40.5258C28.6826 40.3085 28.7791 40.08 28.8523 39.8438C29.6037 37.2656 30.281 34.6687 31.11 32.1187C31.7944 30.0094 32.6528 27.9668 33.4383 25.8949C33.9451 24.5566 34.4602 23.2207 34.987 21.8414C34.8475 21.8421 34.7081 21.8503 34.5695 21.866C32.968 22.1578 31.364 22.4391 29.7683 22.7625C29.4746 22.8319 29.2099 22.9908 29.0111 23.2172C27.4542 25.0547 25.9232 26.9145 24.3792 28.7637C24.2299 28.943 24.077 29.1492 23.8783 29.2488C23.5537 29.4105 23.5114 29.6379 23.5114 29.9613C23.5196 37.4754 23.5114 44.9906 23.5279 52.5059C23.5291 53.2031 23.3303 53.7129 22.6683 54ZM18.0365 32.4492C18.0139 32.4492 18.0246 35.1838 18.027 35.4434C19.5 35.4434 19.7887 35.4434 20.291 35.4434C20.291 33 20.25 31.5 20.25 29.1691C18.9244 29.1691 19.8516 29.1691 19.2012 29.1691C18.8672 29.1691 18.75 29.1691 18.0329 29.1691C18.0294 30.2672 18.0365 31.3582 18.0365 32.4492ZM46.5789 33.7137H49.4857V32.659H46.5789V33.7137Z" fill="#006766"/>
<path d="M42.448 11.9367C44.2036 11.9896 45.6221 13.4326 45.572 15.1145C45.5189 16.8709 44.0877 18.2943 42.4097 18.259C40.6314 18.2218 39.1855 16.7896 39.2248 15.0949C39.2671 13.3023 40.714 11.8838 42.448 11.9367Z" fill="#006766"/>
<path d="M34.7557 47.25H30.75C31.0773 46.6309 31.3771 46.0431 31.7045 45.472C31.7468 45.3986 31.9355 45.3839 32.0574 45.3829C32.7907 45.3751 33.524 45.3829 34.2583 45.3829H34.7262V39.1527C34.7262 38.5218 34.7262 37.2187 34.7262 36.4412C35.2298 36.4412 35.9071 36.4412 36.6204 36.4412C36.6467 36.5003 36.6221 38.4258 36.6204 38.4905C36.6263 38.5551 36.6204 38.6218 36.6204 38.6864C36.6571 40.6614 36.6571 42.9114 36.6571 44.4114C36.6571 45.7673 36.6571 46.6614 36.6204 47.25C36.0805 47.25 35.1055 47.25 34.7557 47.25Z" fill="#006766"/>
</g>
</g>
</svg>
