<svg width="45" height="56" viewBox="0 0 45 56" fill="none" xmlns="http://www.w3.org/2000/svg">
<g id="Group">
<path id="Vector" d="M41.6882 54.4966H2.79061C2.37533 54.4966 2.09848 54.7734 2.09848 55.1887C2.09848 55.604 2.37533 55.8808 2.79061 55.8808H41.6882C42.1034 55.8808 42.3803 55.604 42.3803 55.1887C42.3803 54.8426 42.0342 54.4966 41.6882 54.4966Z" fill="#006766"/>
<path id="Vector_2" d="M42.934 29.4414H1.6832C1.6832 29.4414 -0.462398 29.7183 0.0913043 32.0715L4.38249 52.3508C4.38249 52.3508 4.59013 53.5274 5.76675 53.5274H38.6428C38.6428 53.5274 39.8194 53.389 40.2347 52.0048L44.3875 32.0715C44.3182 32.1407 44.8719 29.9259 42.934 29.4414ZM22.1702 43.1455C21.2704 43.1455 20.5783 42.4534 20.5783 41.5536C20.5783 40.6539 21.2704 39.9617 22.1702 39.9617C23.0699 39.9617 23.7621 40.6539 23.7621 41.5536C23.7621 42.4534 23.0699 43.1455 22.1702 43.1455Z" fill="#006766"/>
<path id="Vector_3" d="M13.4493 13.9379C13.657 14.4224 14.2107 14.9069 14.972 15.1145C15.0412 15.4606 15.2489 16.1527 15.5949 17.1217C16.0794 18.2983 16.91 19.7518 18.225 20.79C18.3634 20.9284 19.6093 22.1742 21.8933 22.1742C22.8623 22.1742 23.9697 21.9666 25.2847 21.3437C25.2847 21.3437 26.1153 20.9284 27.0842 19.9594C27.984 18.9904 28.953 17.4677 29.3683 15.2529C29.5759 15.2529 29.922 15.1145 30.268 14.9069C30.7525 14.5608 31.237 14.0763 31.3754 13.1073C31.3754 13.1073 31.3754 12.5536 31.1678 11.9999C31.0294 11.7231 30.8909 11.4462 30.6141 11.2386C30.4065 11.1002 30.1296 10.8925 29.8528 10.8925L30.268 8.12403C30.6141 3.83284 27.6379 2.79465 27.6379 2.79465C27.5687 1.41039 26.3229 0.510627 26.3229 0.510627C23.9005 -0.873627 18.9171 0.995116 18.9171 0.995116C15.0412 1.96409 14.2107 4.59418 14.2107 4.59418C13.0341 7.36269 14.2107 10.8233 14.3491 11.1002C14.2107 11.1694 14.0722 11.2386 13.9338 11.4462C13.5185 11.5847 13.1725 12.1384 13.1725 13.0381C13.1725 12.9689 13.1725 13.4534 13.4493 13.9379ZM14.1415 11.4462C14.3491 11.377 14.4183 11.2386 14.5567 11.2386C14.626 11.2386 14.6952 11.1694 14.6952 11.1694H14.7644L15.2489 11.031C15.3181 8.26245 16.3563 6.94741 16.3563 6.94741C17.7405 7.01662 19.8861 6.67056 19.8861 6.67056C21.5472 6.60135 24.8002 4.94024 24.8002 4.94024C25.9768 4.10969 26.8074 5.14788 26.8074 5.14788C28.4685 6.60135 28.8146 11.2386 28.8146 11.2386L29.3683 11.1694C29.4375 11.1694 29.5067 11.1694 29.5067 11.1694C29.8528 11.1694 30.0604 11.3078 30.268 11.4462C30.5449 11.6539 30.6833 12.0692 30.8217 12.4152C30.8909 12.5536 30.8909 12.7613 30.8909 12.8305C30.8909 12.8997 30.8909 12.9689 30.8909 12.9689C30.7525 13.7995 30.3372 14.2147 29.9912 14.4224C29.6451 14.63 29.2991 14.6992 29.2298 14.6992H28.953L28.8838 14.9069C28.5377 17.1217 27.5687 18.5752 26.669 19.5441C26.2537 20.0286 25.8384 20.3055 25.4924 20.5131C25.3539 20.6515 25.2155 20.7207 25.1463 20.7207L25.0079 20.79C23.8312 21.3437 22.7238 21.5513 21.8241 21.5513C20.7167 21.5513 19.8861 21.2052 19.3324 20.9284C19.0556 20.79 18.7787 20.5823 18.7095 20.5131C18.6403 20.4439 18.6403 20.4439 18.5711 20.3747C17.256 19.4057 16.4947 18.0215 16.0102 16.914C15.8026 16.3603 15.6641 15.8066 15.5257 15.4606C15.4565 15.3222 15.4565 15.1145 15.3873 15.0453C15.3873 14.9761 15.3873 14.9069 15.3873 14.9069V14.8377L15.3181 14.6992L15.1104 14.63C14.3491 14.4916 13.9338 14.0763 13.7262 13.661C13.5878 13.315 13.5878 12.8997 13.5878 12.8997C13.5878 12.1384 13.8646 11.7231 14.1415 11.4462Z" fill="#006766"/>
<path id="Vector_4" d="M26.3922 28.4032H36.9818C36.7049 27.365 35.3899 24.0428 30.3373 22.0356L26.3922 28.4032Z" fill="#006766"/>
<path id="Vector_5" d="M23.9005 26.1194C23.9005 25.1504 23.1391 24.3198 22.1701 24.3198C21.2012 24.3198 20.4398 25.0812 20.4398 26.1194C20.4398 26.8115 20.7859 27.296 21.3396 27.642H21.2704L21.1319 28.4726H23.2083L23.0699 27.642H22.9315C23.4852 27.296 23.9005 26.7423 23.9005 26.1194Z" fill="#006766"/>
<path id="Vector_6" d="M14.0031 22.0356C14.0031 22.0356 9.01975 23.6275 7.49707 28.4032H18.0174L14.0031 22.0356Z" fill="#006766"/>
</g>
</svg>
